<?xml version="1.0" encoding="utf-8"?>
<!-- Generator: Adobe Illustrator 22.0.0, SVG Export Plug-In . SVG Version: 6.00 Build 0)  -->
<svg version="1.1" id="Capa_1" xmlns="http://www.w3.org/2000/svg" xmlns:xlink="http://www.w3.org/1999/xlink" x="0px" y="0px"
	 viewBox="0 0 453.8 94.3" style="enable-background:new 0 0 453.8 94.3;" xml:space="preserve">
<style type="text/css">
	.st0{fill-rule:evenodd;clip-rule:evenodd;fill:#EDEEF0;}
	.st1{fill-rule:evenodd;clip-rule:evenodd;fill:#5B5B5F;}
	.st2{fill-rule:evenodd;clip-rule:evenodd;fill:#003C71;}
	.st3{fill-rule:evenodd;clip-rule:evenodd;fill:#C95A34;}
	.st4{fill-rule:evenodd;clip-rule:evenodd;fill:#117AB0;}
	.st5{fill-rule:evenodd;clip-rule:evenodd;fill:#333033;}
	.st6{fill-rule:evenodd;clip-rule:evenodd;fill:#9C2722;}
	.st7{fill-rule:evenodd;clip-rule:evenodd;fill:#83231E;}
	.st8{fill-rule:evenodd;clip-rule:evenodd;fill:#FFFFFF;}
	.st9{opacity:0.17;clip-path:url(#SVGID_2_);}
	.st10{opacity:0.65;fill:#91B053;}
	.st11{fill-rule:evenodd;clip-rule:evenodd;fill:#91B053;}
	.st12{fill-rule:evenodd;clip-rule:evenodd;fill:#C3CF6A;}
	.st13{fill-rule:evenodd;clip-rule:evenodd;fill:#6C8E50;}
	.st14{fill:#5B5B5F;}
	.st15{fill:#C3CF6A;}
	.st16{fill:#91B053;}
	.st17{fill:#6C8E50;}
	.st18{fill:#444242;}
	.st19{fill-rule:evenodd;clip-rule:evenodd;fill:#2D688B;}
	.st20{fill:#FFFFFF;}
	.st21{fill-rule:evenodd;clip-rule:evenodd;fill:#F7F7F8;}
</style>
<g>
	<g>
		<path class="st15" d="M50.5,24.2c-0.6,0-1.3-0.1-1.9-0.4l-23.8-9.4c-2.7-1.1-4-4.1-2.9-6.7c1.1-2.7,4.1-4,6.7-2.9l23.8,9.4
			c2.7,1.1,4,4.1,2.9,6.7C54.5,23,52.5,24.2,50.5,24.2z"/>
	</g>
	<g>
		<path class="st16" d="M50.5,40.4c-0.6,0-1.3-0.1-1.9-0.4L6.8,23.5c-2.7-1.1-4-4.1-2.9-6.7c1.1-2.7,4.1-4,6.7-2.9l41.8,16.5
			c2.7,1.1,4,4.1,2.9,6.7C54.5,39.2,52.5,40.4,50.5,40.4z"/>
	</g>
	<g>
		<path class="st17" d="M30,72.5c-0.5,0-1-0.1-1.4-0.2c-1-0.3-5.9-1.9-8-6.7c-1-2.2-1.7-5.7,0.6-10.3c1.5-3.1,4.4-5.1,7.9-6.5
			L6.7,40.1c-2.7-1.1-4.1-4.2-3-6.9c1.1-2.7,4.2-4.1,6.9-3l41.8,16.5c2.4,1,3.8,3.5,3.2,6.1c-0.6,2.5-2.9,4.3-5.5,4.1
			c-9.5-0.6-18.5,1.2-19.5,3c-0.5,0.9-0.4,1.3-0.4,1.3c0.2,0.2,1,0.7,1.2,0.7c2.8,0.8,4.5,3.7,3.7,6.5C34.4,70.9,32.3,72.5,30,72.5z
			"/>
	</g>
	<g>
		<path class="st18" d="M34.3,89.9c-0.6,0-1.3-0.1-1.9-0.4L23,85.9c-2.7-1.1-4-4.1-2.9-6.7c1.1-2.7,4.1-4,6.7-2.9l9.3,3.7
			c2.7,1.1,4,4.1,2.9,6.7C38.3,88.7,36.3,89.9,34.3,89.9z"/>
	</g>
</g>
<g>
	<g>
		<path class="st18" d="M78.7,23.6h3v13h-3V23.6z"/>
		<path class="st18" d="M84.7,23.6h3v13h-3V23.6z"/>
		<path class="st18" d="M90.8,23.6h3v13h-3V23.6z"/>
		<path class="st18" d="M101.1,35.3l1-2.3c1.1,0.8,2.7,1.4,4.3,1.4c1.8,0,2.5-0.6,2.5-1.4c0-2.4-7.5-0.8-7.5-5.6c0-2.2,1.8-4,5.5-4
			c1.6,0,3.3,0.4,4.5,1.1l-0.9,2.3c-1.2-0.7-2.4-1-3.6-1c-1.8,0-2.5,0.7-2.5,1.5c0,2.4,7.5,0.7,7.5,5.5c0,2.2-1.8,4-5.5,4
			C104.4,36.8,102.3,36.2,101.1,35.3z"/>
		<path class="st18" d="M114,23.6h3v13h-3V23.6z"/>
		<path class="st18" d="M131.9,36.6l0-7.8l-3.8,6.4h-1.4l-3.8-6.2v7.6h-2.8v-13h2.5l4.9,8.1l4.8-8.1h2.5l0,13H131.9z"/>
		<path class="st18" d="M149,28.3c0,2.9-2.2,4.7-5.6,4.7h-2.6v3.6h-3v-13h5.6C146.9,23.6,149,25.4,149,28.3z M146,28.3
			c0-1.4-0.9-2.3-2.8-2.3h-2.4v4.5h2.4C145.1,30.6,146,29.7,146,28.3z"/>
		<path class="st18" d="M150.5,30.1c0-3.9,3-6.7,7.1-6.7c4.1,0,7.1,2.8,7.1,6.7c0,3.9-3,6.7-7.1,6.7C153.5,36.8,150.5,34,150.5,30.1
			z M161.7,30.1c0-2.5-1.7-4.2-4.1-4.2s-4.1,1.7-4.1,4.2c0,2.5,1.7,4.2,4.1,4.2S161.7,32.6,161.7,30.1z"/>
		<path class="st18" d="M166,35.3l1-2.3c1.1,0.8,2.7,1.4,4.3,1.4c1.8,0,2.5-0.6,2.5-1.4c0-2.4-7.5-0.8-7.5-5.6c0-2.2,1.8-4,5.5-4
			c1.6,0,3.3,0.4,4.5,1.1l-0.9,2.3c-1.2-0.7-2.4-1-3.6-1c-1.8,0-2.5,0.7-2.5,1.5c0,2.4,7.5,0.7,7.5,5.5c0,2.2-1.8,4-5.5,4
			C169.2,36.8,167.1,36.2,166,35.3z"/>
		<path class="st18" d="M178.8,23.6h3v13h-3V23.6z"/>
		<path class="st18" d="M184.1,30.1c0-3.9,3-6.7,7.1-6.7c4.1,0,7.1,2.8,7.1,6.7c0,3.9-3,6.7-7.1,6.7C187.1,36.8,184.1,34,184.1,30.1
			z M195.2,30.1c0-2.5-1.7-4.2-4.1-4.2s-4.1,1.7-4.1,4.2c0,2.5,1.7,4.2,4.1,4.2S195.2,32.6,195.2,30.1z"/>
		<path class="st18" d="M205.8,23.6h5.9c4.2,0,7.2,2.6,7.2,6.5c0,3.9-2.9,6.5-7.2,6.5h-5.9V23.6z M211.5,34.1c2.6,0,4.3-1.5,4.3-4
			c0-2.5-1.7-4-4.3-4h-2.7v8H211.5z"/>
		<path class="st18" d="M231.2,34.2v2.4h-10v-13h9.8V26h-6.8v2.8h6v2.3h-6v3H231.2z"/>
	</g>
	<g>
		<path class="st18" d="M96.9,64.6V69H78.3V45.1h18.1v4.4H83.9v5.2H95v4.3H83.9v5.5H96.9z"/>
		<path class="st18" d="M119.7,58.5V69h-5.3v-9.7c0-3-1.4-4.3-3.7-4.3c-2.6,0-4.4,1.6-4.4,5V69h-5.3V50.7h5.1v2.2
			c1.4-1.6,3.6-2.4,6.1-2.4C116.4,50.4,119.7,52.9,119.7,58.5z"/>
		<path class="st18" d="M142.6,61.4h-13.9c0.5,2.3,2.5,3.7,5.3,3.7c1.9,0,3.3-0.6,4.6-1.8l2.8,3.1c-1.7,1.9-4.3,3-7.6,3
			c-6.4,0-10.5-4-10.5-9.5c0-5.5,4.2-9.5,9.8-9.5c5.4,0,9.6,3.6,9.6,9.5C142.7,60.3,142.7,60.9,142.6,61.4z M128.7,58.2h9.1
			c-0.4-2.3-2.1-3.8-4.5-3.8C130.8,54.4,129,55.9,128.7,58.2z"/>
		<path class="st18" d="M157.7,50.4v4.9c-0.4,0-0.8-0.1-1.2-0.1c-2.9,0-4.9,1.6-4.9,5.1V69h-5.3V50.7h5.1v2.4
			C152.7,51.3,154.9,50.4,157.7,50.4z"/>
		<path class="st18" d="M179.7,50.7V66c0,6.8-3.7,10-10.3,10c-3.5,0-6.9-0.9-9-2.5l2.1-3.8c1.6,1.3,4.1,2.1,6.5,2.1
			c3.8,0,5.4-1.7,5.4-5v-0.8c-1.4,1.5-3.4,2.3-5.8,2.3c-5.1,0-9.2-3.5-9.2-8.9s4.1-8.9,9.2-8.9c2.6,0,4.7,0.9,6.1,2.6v-2.4H179.7z
			 M174.4,59.3c0-2.7-2-4.5-4.8-4.5s-4.9,1.8-4.9,4.5s2.1,4.5,4.9,4.5S174.4,62,174.4,59.3z"/>
		<path class="st18" d="M188.8,43.4h5.7l-6.2,4.9h-4.2L188.8,43.4z M184.6,50.7h5.3V69h-5.3V50.7z"/>
		<path class="st18" d="M211.2,58.6V69h-5v-2.3c-1,1.7-2.9,2.6-5.6,2.6c-4.3,0-6.9-2.4-6.9-5.6c0-3.2,2.3-5.5,7.9-5.5h4.2
			c0-2.3-1.4-3.6-4.2-3.6c-1.9,0-4,0.6-5.3,1.7l-1.9-3.7c2-1.4,5-2.2,7.9-2.2C207.9,50.4,211.2,53,211.2,58.6z M205.9,63.2v-1.9
			h-3.7c-2.5,0-3.3,0.9-3.3,2.2c0,1.3,1.1,2.2,3,2.2C203.7,65.7,205.2,64.9,205.9,63.2z"/>
		<path class="st18" d="M214.2,67.3l1.8-3.8c1.6,1.1,4.1,1.8,6.4,1.8c2.5,0,3.4-0.6,3.4-1.7c0-3-11.1,0.1-11.1-7.3
			c0-3.5,3.1-5.9,8.5-5.9c2.5,0,5.3,0.6,7.1,1.6l-1.8,3.8c-1.8-1-3.6-1.4-5.3-1.4c-2.4,0-3.4,0.8-3.4,1.7c0,3.1,11.1,0.1,11.1,7.3
			c0,3.4-3.2,5.8-8.7,5.8C219.1,69.3,215.9,68.5,214.2,67.3z"/>
		<path class="st18" d="M259.4,69l-4.6-6.7h-0.3h-4.8V69h-5.5V45.1h10.4c6.4,0,10.4,3.3,10.4,8.7c0,3.6-1.8,6.2-4.9,7.6l5.4,7.7
			H259.4z M254.3,49.6h-4.5V58h4.5c3.4,0,5.1-1.6,5.1-4.2C259.3,51.2,257.6,49.6,254.3,49.6z"/>
		<path class="st18" d="M286.9,61.4h-13.9c0.5,2.3,2.5,3.7,5.3,3.7c1.9,0,3.3-0.6,4.6-1.8l2.8,3.1c-1.7,1.9-4.3,3-7.6,3
			c-6.4,0-10.5-4-10.5-9.5c0-5.5,4.2-9.5,9.8-9.5c5.4,0,9.6,3.6,9.6,9.5C287,60.3,286.9,60.9,286.9,61.4z M272.9,58.2h9.1
			c-0.4-2.3-2.1-3.8-4.5-3.8C275,54.4,273.3,55.9,272.9,58.2z"/>
		<path class="st18" d="M309.3,58.5V69H304v-9.7c0-3-1.4-4.3-3.7-4.3c-2.6,0-4.4,1.6-4.4,5V69h-5.3V50.7h5.1v2.2
			c1.4-1.6,3.6-2.4,6.1-2.4C306,50.4,309.3,52.9,309.3,58.5z"/>
		<path class="st18" d="M313,59.9c0-5.5,4.3-9.5,10.1-9.5s10.1,3.9,10.1,9.5s-4.2,9.5-10.1,9.5S313,65.4,313,59.9z M327.8,59.9
			c0-3.2-2-5.1-4.7-5.1s-4.7,1.9-4.7,5.1s2.1,5.1,4.7,5.1S327.8,63,327.8,59.9z"/>
		<path class="st18" d="M354.5,50.7L346.7,69h-5.5l-7.7-18.4h5.5l5.1,12.5l5.3-12.5H354.5z"/>
		<path class="st18" d="M372.3,58.6V69h-5v-2.3c-1,1.7-2.9,2.6-5.6,2.6c-4.3,0-6.9-2.4-6.9-5.6c0-3.2,2.3-5.5,7.9-5.5h4.2
			c0-2.3-1.4-3.6-4.2-3.6c-1.9,0-4,0.6-5.3,1.7l-1.9-3.7c2-1.4,5-2.2,7.9-2.2C369,50.4,372.3,53,372.3,58.6z M367,63.2v-1.9h-3.7
			c-2.5,0-3.3,0.9-3.3,2.2c0,1.3,1.1,2.2,3,2.2C364.8,65.7,366.3,64.9,367,63.2z"/>
		<path class="st18" d="M397.1,59.9c0,5.8-4,9.5-9.2,9.5c-2.5,0-4.4-0.8-5.8-2.4V69h-5.1V43.7h5.3v8.9c1.4-1.5,3.2-2.2,5.5-2.2
			C393.1,50.4,397.1,54.1,397.1,59.9z M391.7,59.9c0-3.2-2-5.1-4.7-5.1s-4.7,1.9-4.7,5.1s2,5.1,4.7,5.1S391.7,63,391.7,59.9z"/>
		<path class="st18" d="M400.7,43.7h5.3V69h-5.3V43.7z"/>
		<path class="st18" d="M428.9,61.4H415c0.5,2.3,2.5,3.7,5.3,3.7c1.9,0,3.3-0.6,4.6-1.8l2.8,3.1c-1.7,1.9-4.3,3-7.6,3
			c-6.4,0-10.5-4-10.5-9.5c0-5.5,4.2-9.5,9.8-9.5c5.4,0,9.6,3.6,9.6,9.5C429,60.3,428.9,60.9,428.9,61.4z M414.9,58.2h9.1
			c-0.4-2.3-2.1-3.8-4.5-3.8C417,54.4,415.3,55.9,414.9,58.2z"/>
		<path class="st18" d="M430.8,67.3l1.8-3.8c1.6,1.1,4.1,1.8,6.4,1.8c2.5,0,3.4-0.6,3.4-1.7c0-3-11.1,0.1-11.1-7.3
			c0-3.5,3.1-5.9,8.5-5.9c2.5,0,5.3,0.6,7.1,1.6l-1.8,3.8c-1.8-1-3.6-1.4-5.3-1.4c-2.4,0-3.4,0.8-3.4,1.7c0,3.1,11.1,0.1,11.1,7.3
			c0,3.4-3.2,5.8-8.7,5.8C435.6,69.3,432.5,68.5,430.8,67.3z"/>
	</g>
</g>
<g>
	<path class="st12" d="M432.7,91.8H373c-3.1,0-5.6-2.5-5.6-5.6v-0.9c0-3.1,2.5-5.6,5.6-5.6h59.7c3.1,0,5.6,2.5,5.6,5.6v0.9
		C438.3,89.3,435.8,91.8,432.7,91.8z"/>
</g>
<g>
	<path class="st18" d="M375.8,86.4l0.9-1.9c0.9,0.7,2.3,1.1,3.6,1.1c1.5,0,2.1-0.5,2.1-1.2c0-2-6.3-0.6-6.3-4.7
		c0-1.8,1.5-3.4,4.6-3.4c1.4,0,2.8,0.3,3.8,1l-0.8,1.9c-1-0.6-2-0.9-3-0.9c-1.5,0-2.1,0.6-2.1,1.2c0,2,6.3,0.6,6.3,4.6
		c0,1.8-1.5,3.4-4.6,3.4C378.6,87.6,376.8,87.1,375.8,86.4z"/>
	<path class="st18" d="M395,85.4v2h-8.4V76.6h8.2v2h-5.7v2.4h5v2h-5v2.5H395z"/>
	<path class="st18" d="M404,87.4l-2.1-3h-0.1h-2.2v3H397V76.6h4.7c2.9,0,4.7,1.5,4.7,3.9c0,1.6-0.8,2.8-2.2,3.4l2.4,3.5H404z
		 M401.6,78.6h-2.1v3.8h2.1c1.5,0,2.3-0.7,2.3-1.9C403.9,79.3,403.1,78.6,401.6,78.6z"/>
	<path class="st18" d="M420.3,85.4v2.1h-8.2v-1.6l4.2-4c1-0.9,1.1-1.5,1.1-2c0-0.9-0.6-1.4-1.7-1.4c-0.9,0-1.7,0.4-2.3,1.1l-1.8-1.2
		c0.8-1.2,2.4-2,4.3-2c2.4,0,4,1.2,4,3.2c0,1.1-0.3,2-1.8,3.4l-2.5,2.4H420.3z"/>
	<path class="st18" d="M421.3,82c0-3.6,2-5.6,4.7-5.6c2.7,0,4.7,2,4.7,5.6c0,3.6-2,5.6-4.7,5.6C423.3,87.6,421.3,85.6,421.3,82z
		 M428.1,82c0-2.5-0.9-3.5-2.1-3.5c-1.2,0-2.1,1-2.1,3.5s0.9,3.5,2.1,3.5C427.2,85.5,428.1,84.5,428.1,82z"/>
	<path class="st18" d="M435.9,76.6v10.9h-2.5v-8.9h-2.2v-2H435.9z"/>
	<path class="st18" d="M446.5,81.8c0,3.8-2.3,5.9-5.5,5.9c-1.1,0-2.3-0.3-3-0.7l0.9-1.8c0.6,0.4,1.3,0.5,2,0.5c1.8,0,3-1.1,3.1-3.2
		c-0.6,0.6-1.6,1-2.7,1c-2.1,0-3.7-1.3-3.7-3.4c0-2.2,1.8-3.6,4.1-3.6C444.6,76.4,446.5,78.3,446.5,81.8z M443.7,79.9
		c0-0.9-0.7-1.6-1.9-1.6c-1.1,0-1.8,0.6-1.8,1.6s0.7,1.6,1.8,1.6C442.9,81.5,443.7,80.8,443.7,79.9z"/>
</g>
</svg>
