<?xml version="1.0" encoding="utf-8"?>
<!-- Generator: Adobe Illustrator 23.0.3, SVG Export Plug-In . SVG Version: 6.00 Build 0)  -->
<svg version="1.1" id="Layer_1" xmlns="http://www.w3.org/2000/svg" xmlns:xlink="http://www.w3.org/1999/xlink" x="0px" y="0px"
	 viewBox="0 0 147 77" style="enable-background:new 0 0 147 77;" xml:space="preserve">
<style type="text/css">
	.st0{fill:#211915;}
	.st1{fill-rule:evenodd;clip-rule:evenodd;fill:#211915;}
</style>
<g>
	<path class="st1" d="M29,32.7h-8.8v-6.4h-8.8v26.4H29c2.3,0,4.2-1.9,4.2-4.2V36.9C33.2,34.5,31.3,32.7,29,32.7 M24.4,38.5h-4.2v8.3
		h4.2V38.5z"/>
	<path class="st1" d="M133.3,32.7H120c-2.3,0-4.2,1.9-4.2,4.2v11.6c0,2.3,1.9,4.2,4.2,4.2h13.3c2.3,0,4.2-1.9,4.2-4.2V36.9
		C137.5,34.6,135.6,32.7,133.3,32.7 M128.8,38.5h-4.2v8.3h4.2V38.5z"/>
	<path class="st0" d="M71.8,46.8h-4.2v-8.3h4.2l0,3l8.7,0v-4.7c0-2.3-1.9-4.2-4.2-4.2H63.1c-2.3,0-4.2,1.9-4.2,4.2v11.6
		c0,2.3,1.9,4.2,4.2,4.2h13.3c2.3,0,4.2-1.9,4.2-4.2v-4.7h-8.7L71.8,46.8"/>
	<rect x="82.2" y="32.7" class="st0" width="8.8" height="20"/>
	<rect x="48.5" y="32.7" class="st0" width="8.8" height="20"/>
	<path class="st0" d="M47.3,32.7h-3.7v-6.3h-8.8v22.2c0,2.3,1.9,4.2,4.2,4.2h8.3V47h-3.7v-8.8h3.7V32.7"/>
	<path class="st0" d="M101.3,52.7V38.5h4.2v14.2h8.7V36.9c0-2.3-1.9-4.2-4.2-4.2H92.5v20H101.3"/>
</g>
</svg>
