<?xml version="1.0" encoding="utf-8"?>
<!-- Generator: Adobe Illustrator 23.0.3, SVG Export Plug-In . SVG Version: 6.00 Build 0)  -->
<svg version="1.1" id="Layer_1" xmlns="http://www.w3.org/2000/svg" xmlns:xlink="http://www.w3.org/1999/xlink" x="0px" y="0px"
	 viewBox="0 0 147 77" style="enable-background:new 0 0 147 77;" xml:space="preserve">
<style type="text/css">
	.st0{fill:#211915;}
	.st1{fill-rule:evenodd;clip-rule:evenodd;fill:#211915;}
</style>
<g>
	<path class="st0" d="M128.5,42.2c-0.2,0-0.3,0-0.5,0c-5.9,0-11.9,0-17.8,0c-0.6,0-0.5,0.1-0.5-0.5c0-7.9,0-15.8,0-23.7
		c0-0.5-0.1-0.5,0.5-0.5c6,0,12,0,18,0c0.1,0,0.2,0,0.3,0c0,1.6,0,3.2,0,4.8c-0.2,0.2-0.4,0.2-0.6,0.2c-1.5,0-3.1,0-4.6,0
		c-2,0-3.9,0-5.9,0c-0.6,0-0.6,0.1-0.6,0.6c0,1.2,0,2.4,0,3.5c0,0.5,0.1,0.6,0.6,0.6c3.1,0,6.3,0,9.4,0c1,0,1,0,1,1
		c0,1.1,0,2.3,0,3.4c0,0.7-0.1,0.7-0.8,0.7c-3.1,0-6.3,0-9.4,0c-0.8,0-0.8,0-0.8,0.8c0,1.1,0,2.2,0,3.4c0,0.6,0,0.7,0.7,0.7
		c3.5,0,6.9,0,10.4,0c0.2,0,0.5-0.1,0.7,0.2C128.5,38.9,128.5,40.6,128.5,42.2z"/>
	<path class="st0" d="M64.3,29.8c0-4,0-7.9,0-11.9c0-0.5-0.1-0.5,0.5-0.5c6,0,12,0,17.9,0c0.4,0,0.4-0.1,0.4,0.5c0,1.3,0,2.6,0,3.9
		c0,0.1,0,0.2,0,0.3c0,0.1-0.1,0.2-0.2,0.2c-0.1,0-0.2,0-0.3,0c-3.7,0-7.3,0-11,0c-0.5,0-0.5,0-0.5,0.5c0,1.4,0,2.8,0,4.2
		c0,0.1,0,0.2,0,0.3c0,0.1,0.1,0.2,0.2,0.2c0.1,0,0.2,0,0.3,0c3.4,0,6.7,0,10.1,0c0.5,0,0.5,0,0.5,0.4c0,1.3,0,2.6,0,3.9
		c0,0.1,0,0.1,0,0.2c0,0.1-0.1,0.2-0.2,0.2c-0.1,0-0.2,0-0.3,0c-3.3,0-6.6,0-9.9,0c-0.1,0-0.2,0-0.3,0c-0.3,0-0.3,0-0.3,0.3
		c0,1.5,0,3,0,4.6c0,0.3,0,0.3,0.4,0.3c2.5,0,5.1,0,7.6,0c1.2,0,2.4,0,3.6,0c0.4,0,0.4,0,0.4,0.4c0,1.3,0,2.7,0,4
		c0,0.4,0,0.4-0.4,0.4c-5.8,0-11.7,0-17.5,0c-0.2,0-0.4,0-0.7,0c-0.1,0-0.2-0.1-0.2-0.2c0-0.1,0-0.2,0-0.3
		C64.3,37.7,64.3,33.7,64.3,29.8z"/>
	<path class="st0" d="M87,29.8c0-4,0-7.9,0-11.9c0-0.6,0-0.5,0.5-0.5c5.9,0,11.9,0,17.8,0c0.5,0,0.5,0,0.5,0.5c0,1.3,0,2.6,0,3.9
		c0,0.1,0,0.2,0,0.3c0,0.1-0.1,0.1-0.1,0.1c-0.1,0-0.2,0-0.4,0c-3.7,0-7.4,0-11,0c-0.5,0-0.5,0-0.5,0.4c0,1.4,0,2.8,0,4.2
		c0,0.1,0,0.1,0,0.2c0,0.1,0.1,0.2,0.2,0.2c0.1,0,0.2,0,0.3,0c3.4,0,6.7,0,10.1,0c0.5,0,0.4,0,0.4,0.5c0,1.3,0,2.6,0,3.9
		c0,0.1,0,0.2,0,0.3c0,0.1-0.1,0.2-0.2,0.2c-0.1,0-0.2,0-0.3,0c-3.4,0-6.7,0-10.1,0c-0.5,0-0.5,0-0.5,0.5c0,1.4,0,2.9,0,4.3
		c0,0.1,0,0.2,0,0.3c0,0.1,0.1,0.2,0.2,0.2c0.1,0,0.2,0,0.4,0c3.7,0,7.3,0,11,0c0.6,0,0.5,0,0.5,0.5c0,1.3,0,2.6,0,3.9
		c0,0.1,0,0.2,0,0.3c0,0.1-0.1,0.2-0.2,0.2c-0.1,0-0.2,0-0.3,0c-6,0-12,0-18,0c0,0,0,0,0,0c-0.4,0-0.4,0-0.4-0.4
		C87,37.8,87,33.8,87,29.8z"/>
	<path class="st0" d="M53.9,29.8c0-4,0-7.9,0-11.9c0-0.6,0-0.5,0.5-0.5c1.9,0,3.9,0,5.8,0c0.1,0,0.2,0,0.3,0c0.2,0,0.2,0.1,0.2,0.2
		c0,0.1,0,0.2,0,0.3c0,7.9,0,15.8,0,23.8c0,0.5,0,0.5-0.5,0.5c-2,0-4,0-5.9,0c-0.1,0-0.1,0-0.2,0c-0.2,0-0.3,0-0.3-0.2
		c0-0.1,0-0.2,0-0.3C53.9,37.7,53.9,33.7,53.9,29.8z"/>
	<path class="st0" d="M114.8,54.7c0-0.2-0.1-0.4-0.2-0.6c-2.2-2.2-4.4-4.3-6.6-6.5c-0.1-0.1-0.1-0.2-0.2-0.1c0,0.1,0,0.3,0,0.4
		c0,2,0,3.9,0,5.9c0,0.7,0.1,0.6-0.6,0.6c-24.7,0-49.5,0-74.2,0c-0.1,0-0.3,0-0.4,0c-0.2,0-0.2,0.1-0.2,0.2c0,0.1,0,0.2,0,0.3
		c0,3.2,0,6.3,0,9.5c0,0.3,0.1,0.5,0.4,0.7c2.6,1.6,5.1,3.2,7.6,4.8c0.1,0.1,0.3,0.1,0.3,0.3c0,0,0,0,0.1,0c0-1.6,0-3.2,0-4.8
		c0-0.7-0.1-0.6,0.6-0.6c24.3,0,48.6,0,72.9,0c0.1,0,0.3,0,0.4,0c0.3,0,0.3,0,0.3-0.3c0,0,0-0.1,0-0.1
		C114.8,61.2,114.8,58,114.8,54.7z M36.6,62.6c-0.3,0-0.7,0-1,0c-0.3,0-0.3,0-0.3-0.3c0.1-0.9,0-1.9,0.1-3.2c0-0.5,0-1.4-0.1-2.4
		c0-0.3,0-0.3,0.3-0.3c0.4,0,0.7,0,1.1,0c0.3,0,0.3,0,0.3,0.3c0,1.2,0,2.4,0,3.7c0,0.7,0,1.3,0.1,2C36.9,62.6,36.9,62.6,36.6,62.6z
		 M42.2,61.7c0,0.2,0,0.4,0,0.7c0,0.2-0.1,0.3-0.3,0.3c-0.3,0-0.6,0-0.9,0c-0.8,0-1.7,0-2.5,0c-0.3,0-0.3,0-0.3-0.3
		c0-0.9,0-1.9,0-2.8c0-1,0-1.9,0-2.9c0-0.2,0-0.2,0.2-0.2c1.1,0,2.3,0,3.4,0c0.3,0,0.3,0,0.2,0.3c0,0.2,0,0.4,0,0.6
		c0,0.2-0.1,0.3-0.3,0.2c-0.5,0-1,0-1.6,0c-0.6,0-0.5-0.1-0.5,0.5c0,0.2,0,0.4,0,0.6c0,0.3,0,0.3,0.3,0.3c0.5,0,0.9,0,1.4,0
		c0.1,0,0.1,0,0.2,0c0.1,0,0.2,0,0.2,0.2c0,0.2,0,0.5,0,0.7c0,0.2-0.1,0.2-0.3,0.2c-0.5,0-1,0-1.4,0c-0.5,0-0.4-0.1-0.4,0.4
		c0,0.3,0,0.6,0,0.9c0,0.2,0.1,0.2,0.2,0.2c0.7,0,1.3,0,2,0C42.2,61.4,42.2,61.4,42.2,61.7z M47.1,61.7c0,0.2,0,0.4,0,0.5
		c0,0.3,0,0.3-0.4,0.3c-0.8,0-1.7,0-2.5,0c-0.3,0-0.6,0-0.8,0c-0.3,0-0.3,0-0.3-0.3c0-1,0-1.9,0-2.9c0-1,0-1.9,0-2.9
		c0-0.2,0.1-0.2,0.2-0.2c1.2,0,2.3,0,3.5,0c0.2,0,0.2,0,0.2,0.3c0,0.2,0,0.4,0,0.6c0,0.3,0,0.3-0.3,0.3c-0.5,0-1,0-1.6,0
		c-0.1,0-0.2,0-0.3,0c-0.2,0-0.2,0-0.2,0.2c0,0.3,0,0.6,0,0.9c0,0.2,0.1,0.2,0.3,0.2c0.5,0,1.1,0,1.6,0c0.3,0,0.3,0,0.3,0.3
		c0,0.3,0.1,0.6-0.1,0.8c-0.2,0.2-0.5,0-0.7,0c-0.4,0-0.7,0-1.1,0c-0.2,0-0.2,0.1-0.2,0.2c0,0.4,0,0.7,0,1.1c0,0.2,0.1,0.2,0.2,0.2
		c0.6,0,1.3,0,1.9,0C47.1,61.4,47.1,61.4,47.1,61.7z M52,61.7c0,0.2,0,0.4,0,0.6c0,0.3,0,0.3-0.3,0.3c-0.8,0-1.6,0-2.4,0
		c-0.3,0-0.7,0-1,0c-0.3,0-0.3,0-0.3-0.3c0-1,0-1.9,0-2.9c0-0.9,0-1.9,0-2.8c0-0.2,0-0.3,0.2-0.3c1.2,0,2.3,0,3.5,0
		c0.2,0,0.2,0.1,0.2,0.2c0,0.2,0,0.4,0,0.6c0,0.3,0,0.3-0.3,0.3c-0.5,0-1,0-1.4,0c-0.6,0-0.6,0-0.6,0.6c0,0.2,0,0.4,0,0.5
		c0,0.3,0,0.3,0.3,0.3c0.5,0,1,0,1.5,0c0.5,0,0.4,0,0.4,0.4c0,0.7,0,0.7-0.7,0.7c-0.4,0-0.8,0-1.2,0c-0.2,0-0.2,0-0.2,0.2
		c0,0.4,0,0.7,0,1.1c0,0.2,0.1,0.2,0.2,0.2c0.6,0,1.3,0,1.9,0C52,61.4,52,61.4,52,61.7z M114.6,64.2c0,0.1,0,0.1,0,0.2
		c0,0.3,0,0.3-0.3,0.3c-0.1,0-0.2,0-0.3,0c-19.4,0-38.8,0-58.1,0c-0.5,0-0.5,0-0.5-0.5c0-3,0-6,0-9c0-0.1,0-0.2,0-0.3
		c0-0.3,0-0.3,0.3-0.3c0.1,0,0.2,0,0.3,0c9.7,0,19.3,0,29,0c9.7,0,19.4,0,29.1,0c0.5,0,0.5-0.1,0.5,0.5
		C114.6,58.1,114.6,61.2,114.6,64.2z"/>
	<path class="st0" d="M85,57.8c-0.2,0-0.3-0.1-0.4-0.2c-0.3-0.2-0.7-0.3-1.1-0.3c-0.2,0-0.4,0.1-0.6,0.2c-0.3,0.2-0.3,0.6,0,0.8
		c0.2,0.1,0.4,0.2,0.6,0.3c0.3,0.1,0.6,0.2,0.9,0.4c0.8,0.4,1,1,1,1.9c-0.1,0.8-0.5,1.3-1.3,1.6c-0.9,0.3-1.8,0.2-2.7-0.1
		c-0.2-0.1-0.2-0.1-0.2-0.3c0-0.3,0-0.7,0.1-1c0.1-0.1,0.2,0,0.3,0.1c0.5,0.3,1,0.4,1.5,0.4c0.2,0,0.4-0.1,0.6-0.2
		c0.3-0.3,0.4-0.7,0.1-1c-0.2-0.2-0.4-0.3-0.6-0.4c-0.3-0.2-0.7-0.3-1-0.5c-0.8-0.5-1.1-1.2-0.8-2.1c0.2-0.6,0.6-0.9,1.1-1.1
		c0.8-0.2,1.6-0.2,2.4,0.1c0.2,0.1,0.3,0.2,0.2,0.4C85,57.2,85,57.5,85,57.8z"/>
	<path class="st0" d="M107.8,58.3c0.2-0.1,0.4-0.2,0.6-0.3c0.4-0.2,0.7-0.2,1.1-0.1c0.5,0.1,0.7,0.4,0.8,0.9c0,0.2,0.1,0.4,0.1,0.6
		c0,1,0,2,0.1,3c0,0.2,0,0.2-0.2,0.3c-0.3,0-0.7,0-1,0c-0.2,0-0.2-0.1-0.2-0.3c0-0.6,0-1.3,0-1.9c0-0.3,0-0.6,0-0.9
		c0-0.2-0.1-0.5-0.4-0.6c-0.3-0.1-0.5,0.1-0.7,0.2c-0.1,0.1-0.1,0.2-0.1,0.3c0,0.9,0,1.7,0.1,2.6c0,0.5,0,0.5-0.4,0.5
		c-0.3,0-0.6,0-0.8,0c-0.3,0-0.3,0-0.3-0.3c0-0.7,0-1.5,0-2.2c0-0.6-0.1-1.2-0.1-1.8c0-0.3,0-0.3,0.2-0.3c0.4-0.1,0.7-0.1,1.1-0.2
		c0.3,0,0.3,0,0.3,0.2C107.7,58.1,107.7,58.2,107.8,58.3z"/>
	<path class="st0" d="M76.2,62.2c-0.1,0.1-0.2,0.2-0.3,0.2c-0.4,0.2-0.8,0.3-1.3,0.2c-0.7-0.1-1.1-0.6-1.1-1.2c0-0.3,0-0.6,0-0.9
		c0-0.7,0-1.5,0-2.2c0-0.4,0-0.4,0.4-0.4c0.3,0,0.6,0,0.8,0c0.3,0,0.3,0,0.3,0.3c0,0.8,0,1.6,0,2.3c0,0.2,0,0.4,0.1,0.6
		c0.1,0.4,0.4,0.5,0.8,0.4c0.4-0.1,0.4-0.2,0.4-0.6c0-0.8,0-1.6,0-2.5c0-0.1,0-0.2,0-0.3c0-0.1,0.1-0.2,0.2-0.2c0.4,0,0.7,0,1.1-0.1
		c0.3,0,0.3,0,0.3,0.3c0,0.8,0,1.5,0,2.3c0,0.6,0,1.2,0,1.8c0,0.3,0,0.3-0.3,0.3c-0.3,0-0.6,0-0.9,0c-0.2,0-0.2,0-0.3-0.3
		C76.2,62.3,76.2,62.3,76.2,62.2z"/>
	<path class="st0" d="M96.8,56.4c0,0.4,0,0.8,0,1.2c0,0.3,0,0.3,0.3,0.3c0.2,0,0.4-0.1,0.5,0.1c0.1,0.1,0,0.3,0,0.5
		c0,0.1,0,0.1,0,0.2c0,0.3,0,0.3-0.3,0.3c-0.2,0-0.4-0.1-0.5,0c-0.1,0.1-0.1,0.4-0.1,0.6c0,0.5,0,1,0,1.5c0,0.5,0.2,0.7,0.7,0.6
		c0.1,0,0.1-0.1,0.2,0c0,0.3,0,0.5-0.1,0.8c0,0.1-0.1,0.1-0.2,0.2c-0.4,0.1-0.9,0.1-1.3,0c-0.5-0.1-0.8-0.4-0.8-0.9c0-0.3,0-0.7,0-1
		c0-0.5,0-1,0-1.4c0-0.2,0-0.2-0.3-0.3c0,0,0,0-0.1,0c-0.3,0-0.3,0-0.2-0.3c0-0.1,0-0.2,0-0.4c0-0.3,0-0.3,0.4-0.4
		c0.1,0,0.2-0.1,0.2-0.2c0-0.3,0-0.5,0-0.8c0-0.1,0-0.2,0.1-0.2C95.9,56.6,96.4,56.5,96.8,56.4z"/>
	<path class="st0" d="M94.6,61.3c0,0.3,0,0.6,0,0.9c0,0.1-0.1,0.2-0.2,0.3c-0.7,0.2-1.5,0.2-2.2-0.1c-0.7-0.3-1.1-0.9-1.3-1.6
		c-0.1-0.5-0.1-1,0.1-1.5c0.3-0.9,1-1.4,2-1.5c0.5-0.1,1,0,1.4,0.2c0.1,0,0.2,0.1,0.2,0.3c0,0.2-0.1,0.5-0.1,0.7
		c0,0.2-0.1,0.2-0.2,0.1c-0.3-0.2-0.5-0.3-0.9-0.2c-0.4,0-0.7,0.2-0.8,0.6c-0.2,0.5-0.2,1,0,1.5c0.2,0.5,0.8,0.8,1.5,0.6
		C94.2,61.5,94.4,61.4,94.6,61.3z"/>
	<path class="st0" d="M72.7,59.3c-0.7-0.2-1,0-1,0.7c0,0.7,0,1.5,0.1,2.2c0,0.3,0,0.3-0.3,0.3c-0.3,0-0.7,0-1,0
		c-0.2,0-0.2-0.1-0.2-0.2c0-0.3,0-0.5,0-0.8c0-1,0-2,0-3.1c0-0.4,0-0.4,0.4-0.5c0.3-0.1,0.6-0.1,0.9-0.2c0.2,0,0.3,0,0.3,0.2
		c0,0.1,0,0.3,0,0.4c0.1,0,0.2-0.2,0.2-0.3c0.2-0.3,0.5-0.4,0.8-0.4c0.1,0,0.2,0,0.2,0.1C72.9,58.4,72.8,58.9,72.7,59.3z"/>
	<path class="st0" d="M99.9,60.2c0,0.7,0,1.3,0.1,2c0,0.4,0,0.4-0.4,0.4c-0.3,0-0.6,0-0.9,0c-0.3,0-0.3,0-0.3-0.3c0-0.4,0-0.8,0-1.3
		c0-0.9,0-1.8-0.1-2.7c0-0.2,0-0.2,0.2-0.3c0.4-0.1,0.8-0.1,1.1-0.2c0.2,0,0.3,0,0.3,0.2c0,0.7,0,1.3,0,2
		C99.9,60.1,99.9,60.1,99.9,60.2z"/>
	<path class="st0" d="M98.4,56.5c0-0.2-0.1-0.4,0-0.6c0.1-0.1,0.4-0.1,0.6-0.1c0.2,0,0.5-0.1,0.7-0.1c0.1,0,0.2,0,0.2,0.2
		c0,0.3,0,0.7,0,1c0,0.1-0.1,0.2-0.2,0.2c-0.4,0-0.7,0.1-1.1,0.2c-0.1,0-0.2,0-0.2-0.1C98.4,56.9,98.4,56.7,98.4,56.5z"/>
	<path class="st0" d="M48.9,28.7c-0.3-0.3-0.6-0.6-0.9-0.8c-0.9-0.7-1.9-1.4-2.8-2.1c-2.9-2.2-5.5-4.6-7.7-7.5c-1-1.3-2-2.6-3-3.9
		c-0.4-0.5-0.8-1-1.4-1.3c-0.1,0-0.3,0-0.4,0c-0.6,0.3-1,0.8-1.4,1.4c-0.4,0.6-0.9,1.1-1.3,1.7c-2.9,3.9-6.2,7.3-10.1,10.2
		c-0.8,0.6-1.6,1.2-2.4,1.8c-0.3,0.2-0.5,0.4-0.7,0.7c-0.3,0.5-0.3,0.7,0,1.2c0.2,0.3,0.5,0.5,0.7,0.7c0.7,0.6,1.5,1.2,2.2,1.7
		c3.7,2.7,7,5.9,9.8,9.7c0.7,0.9,1.4,1.8,2.1,2.7c0.2,0.3,0.5,0.5,0.8,0.7c0.4,0.2,0.7,0.2,1.1,0c0.3-0.2,0.5-0.4,0.7-0.7
		c0.6-0.8,1.2-1.6,1.8-2.4c2.6-3.5,5.5-6.6,9-9.2c1.1-0.8,2.1-1.6,3.2-2.5c0.2-0.2,0.5-0.4,0.7-0.6C49.4,29.7,49.4,29.3,48.9,28.7z
		 M44.9,30.4c-3.1,4.2-6.8,8-11,11.1c-0.3,0.3-0.6,0.3-0.9,0.3c-0.5,0-0.8-0.1-1.1-0.4c-1.3-1-2.6-2.1-3.8-3.2
		c-2.6-2.3-4.9-4.9-7.1-7.7c-0.5-0.7-0.5-1.4,0-2.1c3.1-4.1,6.8-7.8,10.9-10.9c0.5-0.4,1.4-0.5,2.1,0c4.2,3.2,7.8,6.8,11,11.1
		C45.3,29.2,45.3,29.8,44.9,30.4z"/>
	<path class="st0" d="M64.8,57.7c-0.2-0.7-0.6-1.2-1.3-1.3c-0.2,0-0.5-0.1-0.7-0.1c-0.8,0-1.5,0-2.3,0c-0.3,0-0.3,0-0.3,0.3
		c0,0.9,0,1.8,0.1,2.7c0,1,0,1.9-0.1,2.9c0,0.3,0,0.3,0.3,0.3c0.3,0,0.6,0,1,0c0.3,0,0.3,0,0.3-0.3c0-0.5,0-1.1,0-1.6
		c0-0.2,0-0.2,0.2-0.2c0.3,0,0.6,0,0.9,0c1.1-0.1,1.7-0.6,1.9-1.5C64.8,58.5,64.9,58.1,64.8,57.7z M62.3,59.3
		c-0.8,0-0.6,0.1-0.6-0.5c0-0.1,0-0.3,0-0.4c0-0.3,0-0.5,0-0.8c0-0.1,0-0.2,0.2-0.2c0.2,0,0.5,0,0.7,0c0.4,0.1,0.6,0.3,0.6,0.6
		C63.3,58.7,63.1,59.3,62.3,59.3z"/>
	<path class="st0" d="M105.2,59c-0.2-0.6-0.7-1-1.3-1.1c-0.5-0.1-1.1-0.1-1.6,0c-0.8,0.2-1.3,0.7-1.5,1.5c-0.1,0.3-0.1,0.6-0.1,0.9
		c0,0.2,0,0.3,0,0.5c0.1,1,0.7,1.7,1.7,1.8c0.5,0.1,0.9,0.1,1.4-0.1c0.6-0.2,1.1-0.5,1.3-1.1C105.5,60.6,105.5,59.8,105.2,59z
		 M103.8,61.1c-0.1,0.4-0.3,0.6-0.7,0.6c-0.4,0-0.6-0.2-0.7-0.6c-0.1-0.3-0.1-0.6-0.1-0.9c0-0.3,0-0.6,0.1-0.9
		c0.1-0.4,0.4-0.6,0.7-0.6c0.3,0,0.6,0.2,0.7,0.6C103.9,59.9,103.9,60.5,103.8,61.1z"/>
	<path class="st0" d="M66.9,60.6c0.7,0,1.5,0,2.2-0.1c0.3,0,0.3,0,0.3-0.3c0-0.3,0-0.6-0.1-0.9c-0.2-0.9-0.7-1.4-1.6-1.5
		c-0.2,0-0.4,0-0.6,0c-1,0.1-1.7,0.7-2,1.6c-0.1,0.6-0.1,1.1,0,1.7c0.2,0.5,0.5,0.9,0.9,1.2c0.9,0.5,1.9,0.4,2.9,0.1
		c0.1,0,0.2-0.1,0.2-0.2c0-0.3,0-0.6,0.1-0.9c-0.2,0-0.3,0.1-0.4,0.2c-0.5,0.2-1,0.3-1.5,0.1c-0.4-0.1-0.7-0.5-0.7-0.9
		C66.6,60.6,66.8,60.6,66.9,60.6z M66.5,59.7c0-0.2,0-0.4,0.1-0.5c0.2-0.3,0.5-0.5,0.8-0.4c0.3,0.1,0.5,0.4,0.5,0.7
		c0,0.1,0,0.2-0.1,0.2C67.4,59.7,66.9,59.7,66.5,59.7z"/>
	<path class="st0" d="M87.8,60.6c0.7,0,1.5,0,2.2,0c0.2,0,0.3,0,0.3-0.2c0-0.3,0-0.5-0.1-0.8c-0.2-1-0.7-1.6-1.6-1.7
		c-0.2,0-0.4,0-0.6,0c-1,0.1-1.8,0.7-2,1.7c-0.1,0.5-0.1,1.1,0,1.6c0.1,0.6,0.5,1,1,1.3c0.9,0.4,1.9,0.4,2.8,0
		c0.1,0,0.2-0.1,0.2-0.2c0-0.3,0-0.6,0-0.9c-0.2,0-0.3,0.1-0.4,0.1c-0.4,0.2-0.8,0.2-1.2,0.2c-0.6,0-1-0.4-1.1-1
		C87.6,60.6,87.7,60.6,87.8,60.6z M87.4,59.7c0-0.3,0.1-0.5,0.3-0.7c0.2-0.2,0.5-0.3,0.8-0.1c0.2,0.1,0.4,0.4,0.4,0.7
		c0,0.1-0.1,0.1-0.2,0.1C88.3,59.7,87.9,59.7,87.4,59.7z"/>
	<path class="st0" d="M44,28.7c-0.5-0.7-1-1.3-1.6-2c-2.5-3.1-5.4-5.9-8.6-8.3c-0.3-0.2-0.5-0.3-0.9-0.3c-0.4,0-0.7,0.1-0.9,0.3
		c-0.3,0.2-0.6,0.4-0.8,0.6c-3.5,2.8-6.7,6-9.4,9.5c-0.5,0.6-0.5,1.3,0,1.9c2.9,3.8,6.3,7.2,10.1,10.1c0.7,0.5,1.3,0.5,1.9,0
		c1.3-1,2.6-2.1,3.8-3.2c2.4-2.2,4.5-4.6,6.4-7.1C44.5,29.7,44.4,29.2,44,28.7z M32.8,21C32.9,21,32.9,21,32.8,21
		c0.7,1.7,1.2,3.3,1.8,5.1c-0.3,0-0.6,0-0.8,0c-0.4,0-0.4,0-0.4,0.4c0.1,1.4,0.1,2.8,0.2,4.2c0,0.1,0,0.1,0,0.2c0,0.1,0,0.2-0.1,0.2
		c-0.4,0.1-0.9,0-1.3,0c-0.1,0-0.2-0.1-0.2-0.2c0-0.3,0-0.6,0-0.9c0.1-1.2,0.1-2.4,0.2-3.6c0-0.2,0-0.2-0.3-0.3c-0.3,0-0.6,0-0.9,0
		C31.7,24.3,32.2,22.6,32.8,21z M33.8,37.5c-0.6,0.1-1.2,0.1-1.8,0c-0.2,0-0.2-0.1-0.2-0.3c0-0.6,0.1-1.3,0.1-1.9c0-0.1,0-0.2,0-0.4
		c0,0,0,0,0,0c0-0.8,0.1-1.5,0.1-2.3c0-0.3,0-0.3,0.3-0.2c0.4,0,0.8,0,1.2,0c0.3,0,0.3,0,0.3,0.3c0.1,1.3,0.1,2.6,0.2,4
		c0,0.2,0,0.4,0,0.6C34,37.4,34,37.5,33.8,37.5z M39.1,30.4c-0.3,0.4-0.7,0.6-1.2,0.8c-0.9,0.4-1.9,0.6-2.9,0.7
		c-1.3,0.2-2.6,0.2-3.9,0.1c-1.3-0.1-2.6-0.4-3.7-0.9c-0.4-0.2-0.8-0.4-1.1-0.8c-0.6-0.6-0.6-1.3,0-1.9c0.4-0.4,0.8-0.6,1.3-0.8
		c0.5-0.2,1.1-0.4,1.6-0.5c0.1,0,0.2,0,0.3,0c0.4,0.3,0.9,0.6,1.3,0.8c0,0,0,0.1,0.1,0.1c-0.2,0.1-0.3,0.1-0.5,0.1
		c-0.5,0.1-1,0.3-1.4,0.5c-0.2,0.1-0.4,0.3-0.6,0.4c-0.3,0.3-0.3,0.7,0,1c0.2,0.3,0.5,0.4,0.8,0.6c0.8,0.3,1.6,0.5,2.4,0.6
		c1.5,0.2,3.1,0.1,4.6-0.3c0.5-0.1,1.1-0.3,1.5-0.6c0.2-0.1,0.3-0.2,0.4-0.3c0.3-0.3,0.3-0.7,0-1c-0.2-0.2-0.5-0.4-0.7-0.6
		c-0.3-0.2-0.7-0.3-1.1-0.2c-0.5,0.1-0.4,0.1-0.5-0.3c-0.1-0.3-0.2-0.6-0.4-1c1,0.2,2,0.5,3,0.7C38.3,28,38.1,28,38,28
		c0,0.1,0.1,0.2,0.2,0.2c0.3,0.2,0.6,0.4,0.8,0.7C39.5,29.4,39.5,29.9,39.1,30.4z"/>
</g>
</svg>
