<?xml version="1.0" encoding="utf-8"?>
<!-- Generator: Adobe Illustrator 23.0.3, SVG Export Plug-In . SVG Version: 6.00 Build 0)  -->
<svg version="1.1" id="Layer_1" xmlns="http://www.w3.org/2000/svg" xmlns:xlink="http://www.w3.org/1999/xlink" x="0px" y="0px"
	 viewBox="0 0 147 77" style="enable-background:new 0 0 147 77;" xml:space="preserve">
<style type="text/css">
	.st0{fill:#211915;}
</style>
<g>
	<path class="st0" d="M47.6,43.4c-2.8,0-5-2.2-5-5.1c0-2.8,2.2-5,5-5c2.8,0,5,2.2,5,5C52.7,41.2,50.5,43.4,47.6,43.4 M56.9,33.1
		v-3.5h-6.1c-1-0.3-2-0.5-3.1-0.5c-5.3,0-9.4,4-9.4,9.3c0,5.3,4.2,9.3,9.4,9.3c5.3,0,9.4-4,9.4-9.3c0-1.8-0.5-3.5-1.4-4.8L56.9,33.1
		z M27.2,43.4c-2.8,0-5-2.2-5-5.1c0-2.8,2.2-5,5-5c2.8,0,5,2.2,5,5C32.3,41.2,30.1,43.4,27.2,43.4 M27.2,29c-5.3,0-9.4,4-9.4,9.3
		c0,5.3,4.2,9.3,9.4,9.3c5.3,0,9.4-4,9.4-9.3C36.7,33.1,32.5,29,27.2,29 M11.7,47.1h4.4V22.2h-4.4V47.1z M58.8,47.1h4.4V29.6h-4.4
		V47.1z M47.6,53.3c-2.8,0-5-2.2-5-5h-4.4c0,5.3,4.2,9.3,9.4,9.3c5.3,0,9.4-4,9.4-9.3h-4.4C52.6,51.1,50.4,53.3,47.6,53.3
		 M79.2,36.5c0.6-2.3,2.4-3.6,4.6-3.6c2.3,0,4,1.3,4.5,3.6H79.2z M84,29c-5.3,0-9.2,4-9.2,9.4c0,5.3,3.6,9.2,9.3,9.2
		c3.1,0,5.9-1.2,8-3.3l-2.9-2.9c-1.4,1.4-3,2.4-4.9,2.4c-2.4,0-4.2-1.4-4.8-3.6h13.6V39C92.9,33,89.3,29,84,29 M122.6,29
		c-2.1,0-4,0.8-5.3,2.2v-9.1H113v24.9h4.4v-9.5c0-2.5,1.6-4.3,4.3-4.3c2.5,0,3.9,1.5,3.9,4.3v9.5h4.4V36.8
		C129.8,31.9,126.8,29,122.6,29 M103.8,33.3c1.8,0,3.3,1,4.5,2.3l3-3c-1.7-2.1-4.4-3.5-7.5-3.5c-5.3,0-9.4,4-9.4,9.3
		c0,5.3,4.2,9.3,9.4,9.3c3.1,0,5.8-1.4,7.5-3.5l-3-3c-1.1,1.3-2.7,2.3-4.5,2.3c-2.8,0-4.9-2.2-4.9-5C98.8,35.5,101,33.3,103.8,33.3
		 M71.8,24.2h-4.4v5.4h-2.4v3.9h2.4v13.6h4.4V33.5h2.4v-3.9h-2.4V24.2z M61,21.7c-1.6,0-2.9,1.3-2.9,2.9c0,1.6,1.3,2.9,2.9,2.9
		c1.7,0,2.9-1.3,2.9-2.9C63.9,23,62.6,21.7,61,21.7 M131.5,27.9h0.6l0.7,1.2h0.5l-0.8-1.2c0.5-0.1,0.7-0.3,0.7-0.8
		c0-0.6-0.5-0.9-1.1-0.9h-1v3h0.4V27.9z M131.5,26.5h0.6c0.5,0,0.7,0.2,0.7,0.5c0,0.3-0.2,0.5-0.7,0.5h-0.6V26.5z M132.1,30.5
		c1.6,0,2.9-1.3,2.9-2.9c0-1.6-1.3-2.9-2.9-2.9c-1.6,0-2.9,1.3-2.9,2.9C129.2,29.2,130.5,30.5,132.1,30.5 M132.1,25.1
		c1.4,0,2.5,1.1,2.5,2.5c0,1.4-1.1,2.5-2.5,2.5c-1.4,0-2.5-1.1-2.5-2.5C129.6,26.2,130.7,25.1,132.1,25.1"/>
</g>
</svg>
