<?xml version="1.0" encoding="utf-8"?>
<!-- Generator: Adobe Illustrator 23.0.3, SVG Export Plug-In . SVG Version: 6.00 Build 0)  -->
<svg version="1.1" id="Layer_1" xmlns="http://www.w3.org/2000/svg" xmlns:xlink="http://www.w3.org/1999/xlink" x="0px" y="0px"
	 viewBox="0 0 147 77" style="enable-background:new 0 0 147 77;" xml:space="preserve">
<style type="text/css">
	.st0{fill:#211915;}
</style>
<path class="st0" d="M62.7,29.2H33.2c-2.4,0-4.3-1.9-4.3-4.3s1.9-4.3,4.3-4.3h29.5c2.4,0,4.3,1.9,4.3,4.3S65.1,29.2,62.7,29.2z
	 M61.3,46.5c0-2.4-1.9-4.3-4.3-4.3H27.4c-2.4,0-4.3,1.9-4.3,4.3c0,2.4,1.9,4.3,4.3,4.3h29.5C59.3,50.9,61.3,48.9,61.3,46.5z
	 M14.3,35.6c0,2.4,1.9,4.3,4.3,4.3c0,0,0,0,0,0h29.5c2.4,0,4.3-1.9,4.3-4.3s-1.9-4.3-4.3-4.3H18.7C16.3,31.3,14.3,33.3,14.3,35.6
	C14.3,35.6,14.3,35.6,14.3,35.6z M75.5,20.7l-1.8,6.8h9.1l-6.2,23.1h7.9l6.2-23.1h9.1l1.8-6.8H75.5L75.5,20.7z M103.9,20.7l-8,29.9
	h24l1.8-6.6h-16.3l1.5-5.4h14.5l1.7-6h-14.6l1.4-5.2h16.2l1.8-6.6L103.9,20.7L103.9,20.7z M69.2,61.7c0.7,0,1.3-0.3,1.7-0.7
	l-0.7-0.8c-0.3,0.3-0.6,0.4-1,0.5c-0.5,0-0.9-0.4-0.9-0.9c0,0,0-0.1,0-0.1c0-0.8,0.5-1.5,1.3-1.6c0.4,0,0.8,0.2,1,0.6l1-0.7
	c-0.4-0.7-1.1-1.1-1.9-1c-1.5,0-2.7,1.1-2.8,2.6c0,0,0,0.1,0,0.1c0,1.1,0.8,2,1.9,2.1C69,61.7,69.1,61.7,69.2,61.7L69.2,61.7z
	 M73.9,61.7c1.4,0,2.6-1.2,2.6-2.6c0.1-1.1-0.8-2-1.9-2.1c-0.1,0-0.2,0-0.3,0c-1.4,0-2.6,1.2-2.6,2.6c0,1.1,0.8,2,1.9,2.1
	C73.7,61.7,73.8,61.7,73.9,61.7L73.9,61.7z M73.9,60.6c-0.5,0-1-0.4-1-0.9c0,0,0-0.1,0-0.1c0-0.8,0.6-1.4,1.3-1.5c0.5,0,1,0.4,1,0.9
	c0,0,0,0.1,0,0.1C75.3,59.9,74.7,60.5,73.9,60.6L73.9,60.6z M76.7,61.6H78l0.7-2.6c0-0.5,0.5-0.9,1-0.9c0.3-0.1,0.6,0.1,0.6,0.4
	c0,0,0,0.1,0,0.1c0,0.1,0,0.3-0.1,0.4l-0.7,2.5h1.3l0.7-2.5c0.1-0.3,0.1-0.6,0.2-0.9c0-0.7-0.5-1.2-1.2-1.3c0,0-0.1,0-0.1,0
	c-0.5,0-0.9,0.2-1.2,0.6l0.1-0.6h-1.3L76.7,61.6z M82,61.6h1.3L84,59c0-0.5,0.5-0.9,1-0.9c0.3-0.1,0.6,0.1,0.6,0.4c0,0,0,0.1,0,0.1
	c0,0.1,0,0.3-0.1,0.4l-0.7,2.5h1.3l0.7-2.5c0.1-0.3,0.1-0.5,0.1-0.8c0-0.7-0.5-1.3-1.2-1.3c-0.1,0-0.1,0-0.2,0
	c-0.5,0-0.9,0.2-1.3,0.6l0.1-0.6h-1.3L82,61.6z M88.8,59.8h3.1c0.1-0.3,0.2-0.7,0.2-1c0-0.9-0.7-1.8-1.6-1.8c-0.1,0-0.2,0-0.2,0
	c-1.5,0-2.7,1.2-2.7,2.7c-0.1,1.1,0.8,2,1.8,2c0.1,0,0.2,0,0.3,0c0.6,0,1.3-0.2,1.8-0.6l-0.6-0.8c-0.3,0.2-0.6,0.4-1,0.4
	c-0.5,0.1-1-0.3-1-0.8C88.8,59.9,88.8,59.8,88.8,59.8L88.8,59.8z M88.9,59c0.2-0.6,0.7-1,1.3-1c0.4-0.1,0.7,0.2,0.7,0.5
	c0,0,0,0.1,0,0.1c0,0.1,0,0.2,0,0.3L88.9,59L88.9,59z M94.9,61.7c0.6,0,1.3-0.3,1.7-0.7l-0.7-0.8c-0.3,0.3-0.6,0.4-1,0.5
	c-0.5,0-0.9-0.4-0.9-0.9c0,0,0-0.1,0-0.1c0-0.8,0.5-1.5,1.3-1.6c0.4,0,0.8,0.2,1,0.6l1-0.7c-0.4-0.7-1.1-1.1-1.9-1
	c-1.5,0-2.7,1.2-2.7,2.7c-0.1,1.1,0.8,2,1.9,2.1C94.8,61.7,94.8,61.7,94.9,61.7L94.9,61.7z M98.8,61.7c0.3,0,0.6-0.1,0.9-0.2
	l0.3-1.1c-0.2,0.1-0.4,0.1-0.7,0.2c-0.1,0.1-0.3,0-0.4-0.1c0-0.1,0-0.1,0-0.2c0-0.1,0-0.1,0-0.2l0.5-1.9h1.1l0.3-1.1h-1l0.3-1.2
	h-1.3L98.6,57H98l-0.3,1.1h0.6l-0.6,2.1c-0.1,0.2-0.1,0.4-0.1,0.6C97.7,61.3,98.2,61.7,98.8,61.7C98.7,61.7,98.8,61.7,98.8,61.7
	L98.8,61.7z M100.7,61.7h1.3l1.2-4.7h-1.3L100.7,61.7z M102,56.5h1.4l0.3-1.2h-1.4L102,56.5z M104.5,61.6h1.2l3-4.6h-1.4l-1.8,3
	l-0.2-3H104L104.5,61.6z M108.3,61.6h1.3l1.2-4.6h-1.3L108.3,61.6z M109.6,56.6h1.4l0.3-1.2H110L109.6,56.6z M112.5,61.7
	c0.3,0,0.6-0.1,0.9-0.2l0.3-1.1c-0.2,0.1-0.4,0.1-0.7,0.2c-0.1,0-0.3-0.1-0.3-0.2c0,0,0,0,0-0.1c0-0.1,0-0.1,0-0.2l0.5-1.9h1.1
	l0.3-1.1h-1.1l0.3-1.2h-1.3l-0.2,1.1h-0.6l-0.3,1.1h0.6l-0.6,2.1c-0.1,0.2-0.1,0.4-0.1,0.6C111.4,61.3,111.9,61.7,112.5,61.7
	C112.4,61.7,112.5,61.7,112.5,61.7L112.5,61.7z M115.1,63c0.8,0,1.5-0.5,1.9-1.3l2.8-4.7h-1.4l-1.7,3.1l-0.2-3.1h-1.3l0.6,4.6
	c-0.1,0.2-0.3,0.3-0.5,0.3c-0.2,0-0.4-0.1-0.5-0.2l-0.7,0.9C114.4,62.9,114.8,63,115.1,63z"/>
</svg>
